HIERARCHY
ROOT Hips
{
  OFFSET 245.522 103.514 -252.392
  CHANNELS 6 Xposition Yposition Zposition Zrotation Xrotation Yrotation
  JOINT ToSpine
  {
    OFFSET -2.69724 7.43032 -0.144315
    CHANNELS 3 Zrotation Xrotation Yrotation
    JOINT Spine
    {
      OFFSET -0.0310711 10.7595 1.96963
      CHANNELS 3 Zrotation Xrotation Yrotation
      JOINT Spine1
      {
        OFFSET 19.9056 3.91189 0.764692
        CHANNELS 3 Zrotation Xrotation Yrotation
        JOINT Neck
        {
          OFFSET 25.9749 7.03908 -0.130764
          CHANNELS 3 Zrotation Xrotation Yrotation
          JOINT Head
          {
            OFFSET 9.52751 0.295786 -0.907742
            CHANNELS 3 Zrotation Xrotation Yrotation
            End Site
            {
              OFFSET 16.4037 0.713936 2.7358
            }
          }
        }
        JOINT LeftShoulder
        {
          OFFSET 17.7449 4.33886 11.7777
          CHANNELS 3 Zrotation Xrotation Yrotation
          JOINT LeftArm
          {
            OFFSET 0.911315 1.27913 9.80584
            CHANNELS 3 Zrotation Xrotation Yrotation
            JOINT LeftForeArm
            {
              OFFSET 28.6126 1.18197 -3.53199
              CHANNELS 3 Zrotation Xrotation Yrotation
              JOINT LeftHand
              {
                OFFSET 27.5088 0.0218783 0.327423
                CHANNELS 3 Zrotation Xrotation Yrotation
                End Site
                {
                  OFFSET 18.6038 -0.000155887 0.382096
                }
              }
            }
          }
        }
        JOINT RightShoulder
        {
          OFFSET 17.1009 2.89543 -12.2328
          CHANNELS 3 Zrotation Xrotation Yrotation
          JOINT RightArm
          {
            OFFSET 1.4228 0.178766 -10.211
            CHANNELS 3 Zrotation Xrotation Yrotation
            JOINT RightForeArm
            {
              OFFSET 28.733 1.87905 2.64907
              CHANNELS 3 Zrotation Xrotation Yrotation
              JOINT RightHand
              {
                OFFSET 27.4588 0.290562 -0.101845
                CHANNELS 3 Zrotation Xrotation Yrotation
                End Site
                {
                  OFFSET 17.8396 -0.255518 -0.000602873
                }
              }
            }
          }
        }
      }
    }
  }
  JOINT LeftUpLeg
  {
    OFFSET -5.61296 -2.22332 -10.2353
    CHANNELS 3 Zrotation Xrotation Yrotation
    JOINT LeftLeg
    {
      OFFSET 2.56703 -44.7417 -7.93097
      CHANNELS 3 Zrotation Xrotation Yrotation
      JOINT LeftFoot
      {
        OFFSET 3.16933 -46.5642 -3.96578
        CHANNELS 3 Zrotation Xrotation Yrotation
        JOINT LeftToeBase
        {
          OFFSET 0.346054 -6.02161 12.8035
          CHANNELS 3 Zrotation Xrotation Yrotation
          End Site
          {
            OFFSET 0.134235 -1.35082 5.13018
          }
        }
      }
    }
  }
  JOINT RightUpLeg
  {
    OFFSET -5.7928 -1.72406 10.6446
    CHANNELS 3 Zrotation Xrotation Yrotation
    JOINT RightLeg
    {
      OFFSET -2.57161 -44.7178 -7.85259
      CHANNELS 3 Zrotation Xrotation Yrotation
      JOINT RightFoot
      {
        OFFSET -3.10148 -46.5936 -4.03391
        CHANNELS 3 Zrotation Xrotation Yrotation
        JOINT RightToeBase
        {
          OFFSET -0.0828122 -6.13587 12.8035
          CHANNELS 3 Zrotation Xrotation Yrotation
          End Site
          {
            OFFSET -0.131328 -1.35082 5.13018
          }
        }
      }
    }
  }
}
MOTION
Frames:	19
Frame Time:	0.0333333
50.8671 95.3633 -51.3471 -62.174 -53.8276 -156.622 -70.1915 0 88.8779 94.5914 68.028 -10.4678 9.98516 16.0337 5.91883 -154.72 17.7179 170.919 -148.707 54.3759 166.709 1.94354 -2.79018 -23.3719 -46.3376 26.9884 -158.243 9.21229 17.79 -22.3329 7.71182 -0.606338 -7.022 0.401004 -1.56005 28.3375 -97.0186 -50.5049 63.386 -1.34891 -18.1493 9.63167 7.38118 -0.254968 -4.68634 -80.5674 -5.74131 81.3961 -2.06044 38.6354 -11.5253 5.70974 0.806735 -0.782538 -8.35947 -34.9562 9.9893 -21.1026 0.784251 81.7757 1.96515 43.3227 3.08692 -4.90051 -2.1025 0.824182 -0.531989 17.8845 -9.88556 
47.1055 94.1436 -47.2542 -63.4835 -51.5832 -155.162 -70.1915 0 88.8779 100.65 67.4677 -13.1073 10.8441 15.7117 6.90556 -157.303 17.3038 172.403 -147.041 53.3823 165.412 1.96511 -2.94481 -23.9955 -46.679 29.204 -156.202 7.30825 17.4481 -20.6613 7.70204 -0.549863 -6.23246 0.335553 -1.13538 28.1084 -97.579 -49.9032 66.2495 -1.72492 -18.3522 8.31858 7.42559 -0.272517 -4.953 -79.6115 -1.58248 84.6714 -3.36173 45.4933 -11.5285 3.62719 0.575458 -0.526734 -7.75812 -31.2838 8.12218 -19.626 4.55554 80.8854 2.69606 51.0111 2.28397 -5.01386 -3.77134 0.882169 0.00370943 18.0523 -11.0181 
43.9244 93.162 -43.1344 -64.2707 -50.4111 -153.952 -70.1915 0 88.8779 107.53 66.1389 -16.9199 10.7455 14.9589 7.54756 -158.771 16.5994 173.68 -145.378 52.0479 163.847 2.03425 -3.02933 -25.245 -50.853 35.9765 -151.152 4.49368 22.5718 -17.8052 6.92565 -0.45694 -5.62477 0.350762 -1.23831 28.0832 -96.7272 -49.2084 70.5698 -2.19707 -17.521 7.30626 7.02595 -0.275017 -5.28471 -75.5104 1.14192 87.1149 -4.44974 55.7672 -7.03926 0.545643 2.23416 -0.0289846 -4.7132 -17.6858 3.44461 -19.4401 6.12416 79.0043 3.53562 56.1695 2.0898 -5.46091 -2.90211 0.901323 3.14396 15.0304 -16.1693 
40.5945 91.8695 -39.106 -65.0616 -48.7802 -154.649 -70.1915 0 88.8779 110.231 65.8148 -18.9148 10.878 14.937 8.1918 -159.151 15.9255 174.3 -144.858 51.1431 163.538 2.09097 -2.84592 -25.7261 -62.841 47.1142 -141.437 0.204723 35.2983 -12.4606 7.33164 -0.575967 -7.00467 0.350394 -1.20942 28.754 -94.5355 -48.06 75.6443 -2.05156 -15.898 8.70041 6.83803 -0.184275 -3.76392 -69.3664 0.39833 87.4732 -7.87931 68.6113 -0.369551 1.753 5.47999 -0.015634 -5.4355 -17.0907 13.6994 -18.9532 7.30084 78.8449 5.10421 62.3468 2.00115 -6.48526 -3.77795 1.01353 5.76883 5.73923 -18.3074 
37.492 90.6754 -35.3437 -68.0249 -46.4276 -155.501 -70.1915 0 88.8779 116.037 65.6284 -21.7191 12.1208 15.794 7.48901 -159.657 15.7114 174.875 -143.673 50.5836 162.97 2.14024 -2.84508 -26.4739 -74.6181 51.7677 -130.734 -4.46483 40.7403 -6.17115 6.64132 -0.530638 -7.12808 0.3039 -0.905514 28.9496 -91.0642 -48.7163 81.9033 -0.00420509 -13.6163 13.0139 7.72142 -0.212508 -3.7945 -62.2833 1.91846 88.4516 -23.0156 81.8783 20.437 2.89271 7.75894 -0.101249 -6.20667 -22.7142 13.7728 -20.3462 10.0891 77.7626 6.83293 66.7291 1.625 -6.15223 -5.24509 1.01014 7.12789 -0.00695196 -19.2091 
33.8832 89.7542 -31.4906 -70.755 -44.5065 -155.934 -70.1915 0 88.8779 120.197 65.5546 -23.2389 13.277 16.5895 6.97744 -159.87 15.5807 175.652 -143.451 50.3128 162.461 2.21632 -2.34159 -26.4967 -81.3479 52.2877 -122.809 -5.51202 43.8268 -3.00233 7.29842 -0.652629 -8.18498 0.278649 -0.747402 28.6833 -78.524 -49.348 95.1441 2.09569 -6.56786 18.5613 8.93245 -0.237856 -3.64148 -54.8192 3.33532 87.1196 -142.484 83.7024 140.571 2.39586 5.91723 -0.101301 -6.08997 -21.8269 13.9346 -22.884 13.6368 77.312 8.50525 69.6149 1.16931 -6.2216 -4.05523 0.994826 9.08024 -10.7005 -19.1956 
30.3589 89.3543 -27.6582 -70.7963 -44.0223 -155.242 -70.1915 0 88.8779 120.145 65.9727 -21.8257 13.2461 16.9729 7.49969 -159.003 16.0492 176.211 -142.89 50.6144 161.814 2.29378 -1.7759 -26.4137 -86.7721 51.2447 -115.594 -6.8032 44.3771 0.082627 8.39631 -0.786454 -8.68152 0.237682 -0.479091 27.9868 -71.8992 -49.132 103.223 4.39164 -3.12651 25.2529 8.71879 -0.136967 -2.303 -44.9289 2.29417 84.1164 -163.431 74.0881 160.895 3.56137 6.38078 -0.282072 -6.59952 -25.507 13.9227 -25.2167 15.2776 77.5027 9.97776 71.4205 0.761689 -5.39947 -6.03418 0.972005 10.1223 -14.6269 -20.3934 
26.8067 89.7046 -23.6897 -71.4597 -42.297 -155.708 -70.1915 0 88.8779 121.707 67.3087 -21.5916 12.1254 18.6743 7.26449 -158.442 16.7175 176.801 -143.389 51.3266 160.985 2.32042 -1.50985 -26.2527 -89.9816 48.3627 -109.21 -6.48783 43.027 -0.188512 7.98327 -0.639326 -7.18789 0.254049 -0.592428 26.8056 -73.5812 -50.0657 104.099 7.37604 -6.76425 34.0396 7.74054 -0.0570707 -1.28597 -34.9014 2.08331 83.1686 -167.728 67.1106 167.182 4.65958 6.8588 -0.459405 -6.97083 -27.9475 12.7974 -29.0273 17.0087 78.3922 10.0887 71.195 1.2081 -5.97206 -7.27297 1.0361 10.4579 -17.3628 -19.538 
23.0781 91.3864 -19.1035 -70.8491 -41.7783 -156.319 -70.1915 0 88.8779 119.751 68.6441 -18.8565 10.702 19.801 6.99725 -157.045 17.5899 176.911 -142.544 52.0461 160.529 2.34764 -1.10679 -25.8648 -92.413 44.8313 -103.359 -5.72766 42.01 -1.21175 7.23562 -0.521139 -6.29051 0.203458 -0.200116 25.7164 -70.1208 -49.7397 108.336 10.0969 -8.23412 42.177 7.60376 -0.0105662 -0.541436 -25.2545 0.183489 83.0138 -169.041 63.9983 170.142 4.93116 7.00707 -0.503752 -7.26846 -29.727 12.3032 -35.037 16.2291 80.0311 8.84799 68.05 5.01668 -7.34692 -9.93698 1.13705 10.4085 -16.2381 -20.3202 
18.8899 94.6919 -13.9391 -70.2216 -41.8235 -158.793 -70.1915 0 88.8779 114.74 70.398 -14.8758 9.42991 21.1415 6.06617 -155.285 18.5377 176.57 -143.306 53.3062 160.797 2.31159 -0.953579 -25.1628 -95.5612 41.7213 -98.4506 -7.16295 40.4839 1.65206 8.48582 -0.622698 -6.46538 0.187258 -0.0272704 24.4436 -66.4038 -50.0462 111.928 14.0135 -9.70974 50.2556 5.59212 -0.00541039 -0.496061 -18.7252 -2.59707 85.3865 -168.52 65.6537 169.168 5.45243 6.33363 -0.61418 -7.20913 -29.4405 12.6514 -43.5459 13.8401 83.1921 6.33656 61.3628 7.92806 -8.9388 -11.8079 1.18099 9.49432 -12.5383 -19.4375 
14.5176 99.0257 -8.68799 -70.6854 -41.8173 -163.337 -70.1915 0 88.8779 110.471 72.054 -12.5191 8.3668 22.8671 3.38144 -152.468 18.8344 175.658 -144.994 54.1511 162.014 2.19182 -0.66117 -23.28 -97.3902 38.9941 -93.8661 -7.62851 38.8706 2.72338 9.73668 -0.599849 -5.18803 0.216023 -0.255079 23.6117 -61.1301 -50.1801 116.588 16.7872 -10.0498 55.7718 6.8134 0.0214654 0.0280064 -16.0342 -5.27967 89.5929 -166.02 70.9778 164.993 5.15075 5.607 -0.581161 -6.99931 -28.0821 12.468 -52.541 11.8175 89.0706 4.03263 53.6551 5.76811 -8.87754 -12.2478 1.17725 7.08799 -2.98126 -17.5093 
10.702 103.672 -4.09476 -71.3879 -40.3244 -167.105 -70.1915 0 88.8779 111.16 73.5377 -13.775 7.25433 24.7049 0.329222 -149.941 19.5011 175.116 -144.323 54.6706 161.209 2.19322 0.0576694 -22.3517 -99.5505 35.7389 -89.3431 -7.82891 36.8101 3.82812 10.7309 -0.612188 -4.69185 0.221611 -0.28793 22.7553 -56.3745 -50.5764 120.834 17.5689 -9.03274 60.2519 7.16765 0.0444285 0.408725 -15.0318 -6.65112 92.8397 -159.236 78.3765 157.853 4.29784 5.1825 -0.452107 -6.58424 -25.4233 12.8883 -56.7896 8.35731 90.2208 2.85119 50.0646 1.83689 -6.07691 -9.18323 1.07815 -2.17366 15.2757 -5.33136 
7.27568 107.502 -0.282976 -72.0847 -38.3619 -169.089 -70.1915 0 88.8779 114.851 74.5353 -18.1242 6.21801 25.7943 -0.124184 -149.298 19.8569 176.311 -144.44 55.0583 161.65 2.28325 0.733093 -22.5083 -100.583 32.4261 -84.6546 -7.12865 32.0769 2.91718 11.5167 -0.315383 -1.40826 0.226649 -0.313425 21.5932 -51.7864 -50.0332 124.996 18.8831 -8.16697 64.9941 7.74626 0.0501571 0.438159 -15.5648 -7.17266 93.9759 -129.128 85.5116 129.592 3.87618 4.7629 -0.398524 -6.6554 -25.9053 14.0987 -56.7638 6.31182 88.7643 2.56827 50.4196 0.0602198 -5.10359 -4.08662 0.898687 -17.1006 35.5581 9.41483 
3.82182 110.478 3.19344 -72.4568 -36.709 -170.196 -70.1915 0 88.8779 117.361 75.0769 -21.7088 5.33585 26.4217 0.189716 -149.256 19.6418 176.667 -144.54 54.8335 161.866 2.19088 0.952001 -21.3203 -101.387 30.2783 -79.3913 -6.84502 28.7678 2.73472 13.1325 -0.631544 -3.70509 0.199786 0.00454016 21.1351 -48.2336 -50.0627 128.344 19.2793 -6.76298 69.8085 7.40637 0.0567115 0.588916 -17.4411 -7.1358 94.7058 -26.7848 83.7289 29.3141 3.41131 4.87649 -0.318782 -6.86663 -27.3599 13.6446 -55.59 7.38899 90.0602 3.01996 49.8268 4.15089 -5.30991 -5.22914 0.945388 -22.4702 36.0627 16.8515 
0.0815969 112.596 6.76237 -72.8784 -36.3659 -170.886 -70.1915 0 88.8779 117.05 75.3071 -22.2417 5.4837 26.5635 0.179478 -150.112 19.5276 177.1 -143.713 54.4054 161.036 2.034 0.422397 -20.2205 -100.782 27.8921 -74.7798 -6.95699 25.8171 2.10714 13.3268 -0.632214 -3.63286 0.221706 -0.247243 21.1775 -44.6857 -50.1674 131.69 21.1693 -5.85513 74.537 4.97417 0.0925986 2.06582 -20.9502 -8.11119 94.5765 -8.89163 75.0817 11.7786 3.6872 4.58937 -0.374911 -6.8436 -27.2173 13.8023 -55.1985 8.40612 90.1306 2.62137 44.8847 5.60693 -4.91983 -6.11894 0.941097 -17.7642 32.179 12.1997 
-3.42281 113.873 10.4272 -72.3815 -34.6029 -171.219 -70.1915 0 88.8779 116.417 76.0279 -21.3822 6.03358 27.3517 -1.27492 -151.7 18.9401 178.148 -143.901 53.7021 160.773 1.92108 0.196138 -19.2143 -100.73 25.4934 -70.9593 -7.37554 25.7501 2.99761 13.1252 -0.677548 -4.09711 0.264115 -0.72058 21.7236 -40.7715 -49.2268 135.781 20.6794 -4.72045 77.5558 5.4076 0.125093 2.62359 -23.7837 -8.28706 94.6777 -4.67045 65.5199 5.8581 2.92901 4.94842 -0.237183 -6.77793 -26.7807 14.0965 -53.7941 7.95116 86.8347 1.2527 39.1083 8.87102 -4.59931 -6.83109 0.941559 -11.6778 26.7675 5.65335 
-6.87184 113.941 14.0769 -71.5271 -32.4545 -171.209 -70.1915 0 88.8779 114.386 76.8994 -18.9151 6.667 28.0611 -2.38841 -153.759 18.3784 179.726 -143.333 52.7941 159.848 1.80137 -0.111085 -18.1535 -101.454 23.65 -67.4141 -8.2222 28.3019 5.5259 12.1104 -0.586197 -3.73919 0.269048 -0.758611 22.4974 -38.7406 -47.8076 138.604 22.8819 -4.08781 80.7711 2.70041 0.0464714 2.17952 -25.3949 -8.4121 93.7603 -3.23857 56.4552 1.09665 1.47351 4.81095 -0.00787471 -6.54945 -25.1839 13.1065 -51.8013 6.5781 81.4793 1.1919 35.716 10.346 -3.46186 -6.91213 0.873739 -14.6648 29.5075 8.93751 
-10.6442 112.493 17.5283 -72.2065 -32.2704 -171.531 -70.1915 0 88.8779 113.916 76.6909 -19.6359 7.1363 27.5267 -1.44588 -155.371 18.0942 -178.327 -143.004 52.4734 160.123 1.71903 -0.545962 -17.5636 -102.198 22.2095 -64.3299 -9.58644 29.734 8.79477 11.4353 -0.664227 -4.80964 0.212529 -0.201594 22.8508 -36.731 -45.6968 141.776 23.0688 -3.40576 82.7581 2.52164 0.0428869 2.20245 -27.4192 -8.98945 91.5214 -2.64958 49.1291 -2.51537 0.583129 3.76425 0.0671942 -6.32502 -23.5924 13.58 -52.6919 6.92021 80.5492 1.48574 33.6718 5.60944 -3.27929 -3.88419 0.732135 -11.0813 28.9561 3.52911 
-14.2779 109.609 21.1137 -73.405 -33.4269 -171.808 -70.1915 0 88.8779 115.162 76.0671 -21.6918 7.65485 26.8346 -0.810364 -156.293 18.0881 -177.311 -143.027 52.4546 159.774 1.6517 -1.32217 -17.3899 -103.334 20.4996 -62.719 -9.43013 34.0628 9.20225 13.0643 -0.650223 -3.89163 0.224869 -0.329451 23.2481 -35.6655 -43.2221 144.016 23.6956 -2.78864 84.6696 1.56535 0.023866 2.49168 -28.4043 -10.6731 87.4523 -2.25608 43.6456 -4.01209 0.906723 3.81024 0.020549 -6.33139 -23.4308 14.8643 -55.0795 6.60527 79.3039 1.6413 33.8116 1.05029 -1.87569 -2.1334 0.511882 -11.9264 32.1383 3.28997 
